<svg xmlns="http://www.w3.org/2000/svg" xmlns:xlink="http://www.w3.org/1999/xlink" viewBox="0 0 866.68 228.3"><defs><style>.cls-1{fill:#3c4144;}.cls-2{fill:url(#linear-gradient);}.cls-3{fill:url(#linear-gradient-2);}.cls-4{fill:url(#linear-gradient-3);}</style><linearGradient id="linear-gradient" x1="98.86" y1="0.09" x2="98.86" y2="89.29" gradientUnits="userSpaceOnUse"><stop offset="0" stop-color="#3c4144"/><stop offset="1" stop-color="#7d8285"/></linearGradient><linearGradient id="linear-gradient-2" x1="0" y1="142.6" x2="98.55" y2="142.6" xlink:href="#linear-gradient"/><linearGradient id="linear-gradient-3" x1="98.55" y1="142.78" x2="197.71" y2="142.78" xlink:href="#linear-gradient"/></defs><title>Asset 3</title><g id="Layer_2" data-name="Layer 2"><g id="Layer_1-2" data-name="Layer 1"><path class="cls-1" d="M348.92,57.82V171.2H330.45V120.29H277.13V171.2H258.82V57.82h18.31v47.54h53.32V57.82Z"/><path class="cls-1" d="M381.52,82.71,408,147.76l24.57-65H453L399.5,213.28H379.11l19.11-44.16L361,82.71Z"/><path class="cls-1" d="M521.08,87.53A31.1,31.1,0,0,1,533,103.27V52.36h18.47V171.2H533V150.65a31.1,31.1,0,0,1-11.88,15.74q-8.52,5.94-20.56,5.94a39.25,39.25,0,0,1-20.64-5.46,37.35,37.35,0,0,1-14.21-15.74q-5.15-10.27-5.14-24.25,0-13.81,5.14-24.09a37.35,37.35,0,0,1,14.21-15.74,39.25,39.25,0,0,1,20.64-5.46Q512.57,81.59,521.08,87.53Zm-34.45,17.91q-7.31,7.78-7.31,21.44t7.31,21.44q7.31,7.78,19.51,7.79A26.58,26.58,0,0,0,520,152.49a25.62,25.62,0,0,0,9.64-10.19,32.2,32.2,0,0,0,3.53-15.42,32.35,32.35,0,0,0-3.53-15.34A25.6,25.6,0,0,0,520,101.26a26.57,26.57,0,0,0-13.81-3.61Q493.93,97.65,486.63,105.44Z"/><path class="cls-1" d="M604.59,86.33a36.37,36.37,0,0,1,19.27-5.06v19.91H618.4q-12,0-19.35,5.86t-7.31,19.36v44.8H573.43V82.71h18.31v17.35A34.05,34.05,0,0,1,604.59,86.33Z"/><path class="cls-1" d="M701.1,87.05a39.14,39.14,0,0,1,16.06,15.74Q723,113.07,723,126.88q0,14-5.79,24.25a39.14,39.14,0,0,1-16.06,15.74,51.53,51.53,0,0,1-46.17,0,39.75,39.75,0,0,1-16.06-15.82Q633,140.68,633,126.88t5.86-24.09a39.87,39.87,0,0,1,16.06-15.74,51.53,51.53,0,0,1,46.17,0ZM665,100.7a23.71,23.71,0,0,0-9.56,9.88q-3.6,6.66-3.61,16.3,0,9.8,3.61,16.38a23.79,23.79,0,0,0,9.56,9.8,28,28,0,0,0,26,0,23.77,23.77,0,0,0,9.55-9.8q3.62-6.58,3.62-16.38,0-9.64-3.62-16.3A23.69,23.69,0,0,0,691,100.7a28,28,0,0,0-26,0Z"/><path class="cls-1" d="M758.12,57.82v67.29q0,15.11,6.66,22.49T783.49,155q11.88,0,18.55-7.38t6.67-22.49V57.82H827v67.29q0,23.29-12,35.25t-31.8,12q-19.59,0-31.48-12t-11.88-35.25V57.82Z"/><path class="cls-1" d="M866.68,57.82V171.2H848.37V57.82Z"/><polygon class="cls-2" points="197.71 57.25 197.71 57.25 148.13 28.63 98.55 0 49.27 28.45 0 56.9 0 56.9 49.58 85.52 98.86 57.08 148.44 85.7 197.71 57.25"/><polygon class="cls-3" points="98.55 228.3 98.55 171.4 49.58 142.42 49.58 85.52 0 56.9 0 113.79 0 170.69 98.55 228.3"/><polygon class="cls-4" points="98.55 228.3 98.55 228.3 148.13 199.67 197.71 171.05 197.71 114.15 197.71 57.25 197.71 57.25 148.44 85.7 148.13 142.78 98.55 171.4 98.55 228.3"/></g></g></svg>