<svg xmlns="http://www.w3.org/2000/svg" xmlns:xlink="http://www.w3.org/1999/xlink" viewBox="0 0 197.71 228.3"><defs><style>.cls-1{fill:url(#linear-gradient);}.cls-2{fill:url(#linear-gradient-2);}.cls-3{fill:url(#linear-gradient-3);}</style><linearGradient id="linear-gradient" x1="98.86" y1="0.09" x2="98.86" y2="89.29" gradientUnits="userSpaceOnUse"><stop offset="0" stop-color="#3c4144"/><stop offset="1" stop-color="#7d8285"/></linearGradient><linearGradient id="linear-gradient-2" x1="0" y1="142.6" x2="98.55" y2="142.6" xlink:href="#linear-gradient"/><linearGradient id="linear-gradient-3" x1="98.55" y1="142.78" x2="197.71" y2="142.78" xlink:href="#linear-gradient"/></defs><title>Asset 4</title><g id="Layer_2" data-name="Layer 2"><g id="Layer_1-2" data-name="Layer 1"><polygon class="cls-1" points="197.71 57.25 197.71 57.25 148.13 28.63 98.55 0 49.27 28.45 0 56.9 0 56.9 49.58 85.52 98.86 57.08 148.44 85.7 197.71 57.25"/><polygon class="cls-2" points="98.55 228.3 98.55 171.4 49.58 142.42 49.58 85.52 0 56.9 0 113.79 0 170.69 98.55 228.3"/><polygon class="cls-3" points="98.55 228.3 98.55 228.3 148.13 199.67 197.71 171.05 197.71 114.15 197.71 57.25 197.71 57.25 148.44 85.7 148.13 142.78 98.55 171.4 98.55 228.3"/></g></g></svg>