<svg xmlns="http://www.w3.org/2000/svg" viewBox="0 0 607.86 160.92"><defs><style>.cls-1{fill:#3c4144;}</style></defs><title>Asset 5</title><g id="Layer_2" data-name="Layer 2"><g id="Layer_1-2" data-name="Layer 1"><path class="cls-1" d="M90.1,5.46V118.84H71.63V67.93H18.31v50.91H0V5.46H18.31V53H71.63V5.46Z"/><path class="cls-1" d="M122.7,30.35,149.19,95.4l24.58-65.05h20.39L140.68,160.92H120.29l19.11-44.16L102.14,30.35Z"/><path class="cls-1" d="M262.26,35.17a31.1,31.1,0,0,1,11.88,15.74V0h18.47V118.84H274.14V98.29A31.1,31.1,0,0,1,262.26,114Q253.74,120,241.7,120a39.25,39.25,0,0,1-20.64-5.46,37.28,37.28,0,0,1-14.21-15.74q-5.15-10.27-5.14-24.25,0-13.81,5.14-24.09a37.28,37.28,0,0,1,14.21-15.74,39.25,39.25,0,0,1,20.64-5.46Q253.75,29.23,262.26,35.17ZM227.81,53.08q-7.32,7.79-7.31,21.44T227.81,96q7.31,7.79,19.51,7.79a26.58,26.58,0,0,0,13.81-3.62,25.62,25.62,0,0,0,9.64-10.19,32.2,32.2,0,0,0,3.53-15.42,32.35,32.35,0,0,0-3.53-15.34,25.6,25.6,0,0,0-9.64-10.28,26.57,26.57,0,0,0-13.81-3.61Q235.11,45.29,227.81,53.08Z"/><path class="cls-1" d="M345.76,34A36.4,36.4,0,0,1,365,28.91V48.82h-5.46q-12,0-19.36,5.86T332.92,74v44.8H314.61V30.35h18.31V47.7A34.09,34.09,0,0,1,345.76,34Z"/><path class="cls-1" d="M442.28,34.69a39.2,39.2,0,0,1,16.06,15.74q5.79,10.27,5.78,24.09,0,14-5.78,24.25a39.2,39.2,0,0,1-16.06,15.74,51.53,51.53,0,0,1-46.17,0,39.75,39.75,0,0,1-16.06-15.82q-5.87-10.36-5.86-24.17t5.86-24.09a39.87,39.87,0,0,1,16.06-15.74,51.53,51.53,0,0,1,46.17,0ZM406.15,48.34a23.71,23.71,0,0,0-9.56,9.88Q393,64.88,393,74.52q0,9.8,3.61,16.38a23.79,23.79,0,0,0,9.56,9.8,28,28,0,0,0,26,0,23.77,23.77,0,0,0,9.55-9.8q3.61-6.59,3.61-16.38,0-9.64-3.61-16.3a23.69,23.69,0,0,0-9.55-9.88,28,28,0,0,0-26,0Z"/><path class="cls-1" d="M499.3,5.46V72.75q0,15.1,6.66,22.49t18.71,7.38q11.88,0,18.55-7.38t6.66-22.49V5.46h18.31V72.75q0,23.3-12,35.25t-31.8,12q-19.59,0-31.48-12T481,72.75V5.46Z"/><path class="cls-1" d="M607.86,5.46V118.84H589.55V5.46Z"/></g></g></svg>